<?xml version="1.0" standalone="no"?>
<!DOCTYPE svg PUBLIC "-//W3C//DTD SVG 20010904//EN"
 "http://www.w3.org/TR/2001/REC-SVG-20010904/DTD/svg10.dtd">
<svg version="1.0" xmlns="http://www.w3.org/2000/svg"
 width="734.000000pt" height="734.000000pt" viewBox="0 0 734.000000 734.000000"
 preserveAspectRatio="xMidYMid meet">
<metadata>
Created by potrace 1.14, written by Peter Selinger 2001-2017
</metadata>
<g transform="translate(0.000000,734.000000) scale(0.100000,-0.100000)"
fill="#000000" stroke="none">
<path d="M3535 7165 c-47 -23 -76 -25 -45 -4 13 9 13 10 0 6 -8 -2 -15 -12
-15 -22 0 -25 -104 -96 -130 -89 -15 4 -17 3 -6 -4 11 -8 2 -18 -40 -43 -30
-19 -56 -32 -58 -31 -2 2 -7 0 -10 -5 -12 -18 -378 -193 -436 -208 -34 -9
-120 -19 -200 -22 -183 -7 -292 14 -438 85 -56 26 -122 54 -147 61 -25 7 -59
17 -76 22 -44 13 -182 11 -232 -4 -42 -13 -82 -40 -206 -142 -33 -27 -75 -61
-93 -75 -17 -14 -90 -73 -160 -131 -70 -58 -194 -160 -274 -225 -359 -291
-449 -378 -449 -432 0 -11 -5 -22 -12 -24 -9 -3 -9 -11 -1 -34 6 -16 14 -42
18 -58 3 -16 31 -54 65 -87 l59 -58 42 14 c59 21 98 19 157 -11 133 -66 238
-261 289 -538 24 -126 23 -448 -1 -561 -30 -139 -88 -295 -136 -367 -76 -113
-184 -249 -278 -350 -78 -84 -90 -103 -96 -142 -4 -25 -11 -48 -17 -51 -5 -4
-9 -16 -9 -29 0 -12 -4 -26 -9 -31 -5 -6 -13 -35 -19 -65 -6 -30 -18 -86 -27
-125 -22 -92 -33 -152 -46 -255 -5 -47 -14 -104 -19 -128 -12 -53 -13 -519 -1
-526 4 -3 11 -39 14 -79 3 -41 10 -94 17 -118 6 -24 18 -71 27 -104 8 -33 18
-67 23 -75 4 -9 11 -31 15 -50 4 -19 11 -41 15 -50 4 -8 22 -45 39 -81 39 -83
304 -423 453 -582 84 -89 136 -135 212 -185 56 -37 106 -69 111 -71 6 -2 44
-27 85 -55 70 -47 124 -71 459 -208 119 -49 432 -152 616 -204 244 -69 532
-206 729 -347 97 -69 128 -90 211 -140 11 -7 23 -16 27 -22 4 -5 45 -10 90
-10 l83 1 90 55 c50 31 145 93 212 137 113 75 403 230 403 216 0 -4 6 -2 13 3
6 6 44 21 82 33 39 13 115 40 169 61 55 21 142 50 194 65 52 14 147 45 211 69
64 24 134 46 155 49 148 24 576 232 759 369 126 95 402 376 474 482 80 118
132 211 168 300 9 22 20 47 25 56 5 9 12 33 15 53 4 20 11 39 16 41 4 3 11 26
15 50 3 25 10 48 15 51 5 3 9 18 9 35 0 16 4 37 10 47 12 22 28 139 41 312 13
176 -14 614 -41 662 -6 10 -10 33 -10 52 0 19 -4 37 -9 41 -5 3 -13 34 -16 70
-4 36 -11 68 -16 71 -5 3 -9 13 -9 23 0 22 -28 118 -41 143 -5 10 -9 25 -9 34
0 8 -36 49 -79 90 -77 72 -133 147 -200 265 -17 32 -34 65 -36 75 -2 11 -22
62 -43 114 -41 101 -74 214 -92 319 -11 59 -15 385 -6 441 2 14 7 49 11 78 18
151 108 370 191 461 50 56 128 101 175 101 19 0 47 20 102 73 67 64 76 77 82
120 9 58 -1 113 -27 149 -33 47 -196 187 -678 584 -381 314 -413 338 -470 358
-56 20 -165 20 -250 2 -80 -17 -101 -25 -216 -82 -134 -66 -248 -88 -429 -81
-163 7 -223 21 -355 83 -214 102 -340 167 -340 175 0 5 -5 9 -11 9 -12 0 -127
74 -169 109 -40 33 -43 35 -83 54 -52 24 -112 21 -172 -8z m-631 -809 c0 -43
-5 -52 -35 -77 -38 -32 -51 -36 -43 -14 3 8 9 14 12 13 20 -2 25 4 12 13 -12
9 -11 10 7 6 13 -3 24 1 27 10 10 26 6 79 -6 92 -11 10 -9 12 7 9 17 -3 20
-11 19 -52z m-125 -67 c-7 -18 -19 -29 -31 -29 -10 0 -16 -4 -13 -10 3 -5 2
-10 -3 -10 -4 0 -14 -22 -21 -49 -12 -48 -41 -90 -41 -60 0 23 48 119 76 152
14 16 24 39 23 51 -3 42 3 50 13 17 6 -24 6 -42 -3 -62z m1781 81 c0 -5 -13
-10 -28 -10 -31 0 -52 -30 -52 -73 0 -18 -2 -19 -10 -7 -25 39 12 100 61 100
16 0 29 -4 29 -10z m40 -36 c6 -14 10 -42 10 -63 0 -25 7 -44 19 -55 19 -17
46 -76 35 -76 -7 0 -56 58 -71 84 -7 12 -10 37 -6 57 3 20 0 46 -6 58 -8 14
-8 21 -1 21 6 0 15 -12 20 -26z m-66 -106 c12 -21 26 -63 26 -80 0 -12 22 -69
49 -127 48 -105 73 -171 53 -142 -8 11 -13 5 -21 -26 -9 -35 -16 -42 -53 -54
-23 -7 -67 -37 -100 -67 -32 -30 -58 -49 -58 -42 0 7 -13 39 -30 72 -16 32
-30 65 -30 73 0 8 -5 15 -11 15 -5 0 -7 5 -4 10 10 16 61 -59 74 -108 l6 -23
40 32 c50 39 121 72 138 63 6 -4 9 -4 5 1 -4 4 0 20 9 35 15 27 14 31 -30 136
-25 60 -52 129 -58 153 -7 23 -23 50 -35 58 -12 8 -25 20 -28 28 -4 10 2 11
26 4 17 -4 31 -10 32 -11z m-1694 -14 c0 -8 -4 -22 -9 -32 -6 -9 -29 -60 -52
-112 -23 -52 -48 -102 -56 -111 -12 -14 -11 -17 6 -22 11 -2 21 -15 23 -27 2
-18 11 -24 37 -26 19 -2 48 -13 66 -24 32 -20 85 -86 85 -107 0 -6 7 -13 15
-17 18 -7 20 10 3 18 -7 3 -4 4 7 3 12 -1 21 4 21 13 1 8 2 22 3 29 1 10 4 12
11 5 11 -11 -17 -94 -31 -94 -12 0 -104 111 -101 122 1 5 -1 7 -5 5 -5 -3 -26
3 -47 14 -22 10 -46 19 -53 19 -7 0 -13 4 -13 9 0 4 -12 20 -26 34 -26 26 -26
27 -10 61 9 19 16 36 16 39 0 3 20 49 46 103 25 53 43 103 40 110 -3 8 0 11
10 7 7 -3 14 -11 14 -19z m1040 -10 c78 -21 152 -56 141 -67 -5 -5 -16 -5 -27
1 -36 19 -110 41 -198 58 -84 16 -94 16 -190 -1 -56 -10 -143 -35 -195 -56
-52 -21 -99 -36 -103 -33 -4 3 -8 -1 -8 -8 -1 -12 -53 -50 -124 -90 -17 -10
-27 -18 -22 -18 6 0 -5 -16 -24 -35 -19 -19 -40 -35 -47 -35 -8 0 -13 -8 -11
-17 2 -10 -3 -18 -11 -18 -8 0 -16 -6 -19 -14 -3 -9 0 -11 8 -6 9 5 11 4 6 -4
-7 -11 -26 -6 -26 8 0 15 72 91 81 86 5 -4 7 0 4 7 -5 16 98 104 119 102 8 -1
14 3 13 9 -3 17 179 106 263 128 120 30 262 32 370 3z m231 -96 c33 -18 59
-39 59 -46 0 -7 4 -11 9 -8 10 7 131 -102 161 -144 38 -53 -5 -26 -84 51 -70
70 -179 149 -205 149 -6 0 -11 7 -11 15 0 21 4 20 71 -17z m608 -70 c23 -51
41 -101 41 -110 0 -13 8 -18 28 -18 26 0 60 -18 90 -47 9 -8 40 -13 85 -13 39
0 98 -5 131 -11 235 -42 263 -48 344 -76 23 -8 47 -23 52 -33 9 -17 7 -17 -42
2 -117 44 -309 82 -478 94 -75 5 -100 11 -117 27 -12 11 -20 24 -17 28 3 5
-12 9 -33 9 l-39 0 -52 111 c-53 114 -58 129 -43 129 4 0 27 -42 50 -92z
m-2079 -12 c-17 -40 -34 -65 -40 -61 -6 4 -17 2 -24 -4 -7 -6 -23 -12 -37 -14
-13 -2 -25 -9 -25 -15 -1 -7 -2 -16 -3 -22 0 -5 -16 -10 -34 -10 -55 0 -359
-39 -402 -51 -92 -27 -131 -41 -193 -71 -71 -34 -159 -100 -206 -155 -15 -18
-33 -30 -39 -26 -5 3 -7 1 -4 -4 4 -6 -2 -22 -12 -35 -34 -42 -108 -203 -120
-259 -24 -113 -31 -156 -35 -209 -2 -30 -2 -12 -1 40 1 52 9 129 18 170 18 89
72 214 88 205 5 -4 10 -1 8 6 -3 28 1 37 22 42 15 4 20 11 15 22 -9 24 103
137 189 190 76 47 151 79 230 95 197 43 255 50 463 59 7 1 11 5 7 10 -9 16 54
54 81 48 18 -3 24 0 24 14 0 11 9 36 20 56 11 21 20 44 20 52 0 10 3 12 10 5
7 -7 1 -32 -20 -78z m400 -190 c0 -2 -7 -9 -15 -16 -12 -10 -15 -10 -15 4 0 9
7 16 15 16 8 0 15 -2 15 -4z m2596 -188 c26 -21 41 -38 34 -38 -6 0 -9 -4 -5
-10 3 -5 12 -7 19 -4 9 3 13 -1 13 -13 -1 -11 4 -17 13 -16 9 2 32 -23 57 -60
53 -81 73 -124 72 -156 -1 -23 -2 -22 -12 9 -6 19 -15 40 -19 45 -5 6 -23 33
-40 60 -43 67 -142 165 -206 205 -29 17 -52 38 -52 46 0 18 60 -14 126 -68z
m-1609 -684 c-3 -3 -12 -4 -19 -1 -8 3 -5 6 6 6 11 1 17 -2 13 -5z m32 -152
c-1 -56 -1 -56 -10 -19 -5 21 -13 47 -19 57 -7 13 -6 20 3 23 22 8 27 -3 26
-61z m-2538 -122 c16 0 19 -8 19 -55 0 -36 8 -76 24 -113 34 -81 35 -93 9
-134 -34 -55 -30 -80 21 -130 l45 -43 5 -125 c6 -147 12 -178 38 -207 17 -19
20 -35 19 -119 -2 -137 -21 -148 -23 -14 0 58 -1 110 -1 117 0 7 -4 11 -10 10
-20 -4 -37 89 -40 215 -2 108 -4 128 -18 128 -27 0 -70 55 -76 97 -4 32 0 49
21 81 l26 42 -27 53 c-21 41 -27 66 -28 118 0 37 -3 62 -6 57 -4 -7 -9 -6 -13
1 -4 6 -14 11 -22 11 -24 0 -63 30 -58 45 4 10 14 8 41 -11 20 -13 44 -24 54
-24z m2529 14 c0 -8 -4 -14 -10 -14 -5 0 -10 9 -10 21 0 11 5 17 10 14 6 -3
10 -13 10 -21z m147 -46 c-3 -7 -5 -2 -5 12 0 14 2 19 5 13 2 -7 2 -19 0 -25z
m-113 -68 c4 -38 3 -47 -3 -30 -5 14 -9 18 -10 11 -1 -12 -4 -12 -13 -3 -10
10 -10 19 0 44 6 17 9 36 5 42 -4 7 -2 8 5 1 6 -5 13 -35 16 -65z m1769 -27
c-3 -40 -16 -93 -31 -127 l-26 -58 22 -42 c27 -50 28 -107 5 -133 -10 -10 -15
-14 -12 -8 15 27 9 97 -11 124 -27 39 -25 71 6 131 21 40 26 64 26 115 0 49 3
65 13 65 11 0 13 -14 8 -67z m-1763 -48 c0 -9 -9 -15 -22 -15 -22 1 -23 1 -4
15 25 19 26 19 26 0z m1686 -334 c-4 -5 -3 -11 1 -14 5 -2 3 -2 -4 -1 -7 2
-19 -4 -28 -12 -8 -9 -15 -11 -15 -6 0 5 10 17 23 25 26 19 30 20 23 8z m-29
-174 c-7 -129 -23 -199 -49 -203 -13 -1 -12 3 2 32 10 19 20 71 24 121 16 203
32 240 23 50z m-64 -264 c-2 -6 0 -28 6 -49 10 -36 4 -130 -7 -119 -3 3 -7 54
-8 113 -2 60 1 98 5 87 5 -11 6 -25 4 -32z m-3925 -162 c-6 -2 -5 -7 3 -12 8
-5 9 -9 3 -9 -17 0 -67 58 -59 70 5 8 16 2 35 -17 16 -15 24 -30 18 -32z m192
-31 c95 -4 115 -8 118 -21 8 -42 -106 -227 -130 -212 -8 4 -9 0 -3 -13 7 -18
22 -73 46 -167 9 -35 6 -45 -28 -108 -21 -40 -41 -65 -46 -60 -5 5 6 37 27 77
24 46 32 72 26 83 -4 9 -14 45 -20 81 -7 36 -17 73 -22 83 -7 14 -1 27 29 60
22 24 52 66 68 95 15 29 32 52 37 52 4 0 8 9 8 20 0 23 -1 23 -53 11 -20 -5
-39 -5 -42 -1 -3 4 -23 6 -44 3 -63 -9 -128 5 -134 27 -4 17 -2 17 22 7 14 -6
78 -14 141 -17z m3711 -19 c-6 -9 -27 -25 -48 -36 -21 -10 -46 -22 -56 -27
-26 -13 -101 -12 -123 0 -17 10 -15 11 13 12 61 0 130 21 164 49 36 31 65 32
50 2z m-295 -62 c4 -7 -2 -9 -17 -7 -43 6 -25 -44 58 -157 21 -29 28 -47 21
-51 -24 -15 -140 188 -123 217 8 13 52 11 61 -2z m39 1 c-3 -5 -11 -10 -16
-10 -6 0 -7 5 -4 10 3 6 11 10 16 10 6 0 7 -4 4 -10z m46 -242 c-5 -13 -12
-46 -16 -74 -6 -44 -3 -59 19 -102 27 -54 32 -72 17 -72 -9 0 -37 60 -33 73 1
4 -2 7 -8 7 -34 0 -31 76 6 158 17 36 28 44 15 10z m-2248 -218 c10 0 15 -4
12 -10 -7 -12 -225 -14 -225 -2 0 17 12 19 103 16 50 -2 100 -3 110 -4z m995
-9 c3 -8 -31 -11 -112 -11 -102 0 -128 5 -112 21 10 10 220 1 224 -10z m-1343
-1 c-3 -5 -21 -10 -39 -10 -86 0 -182 -98 -202 -205 -10 -58 -31 -94 -61 -106
-31 -12 -360 5 -408 20 -23 8 -11 9 50 5 44 -3 140 -7 214 -10 156 -6 161 -4
186 85 34 122 84 189 161 216 46 17 108 20 99 5z m115 0 c0 -5 -22 -10 -50
-10 -27 0 -50 5 -50 10 0 6 23 10 50 10 28 0 50 -4 50 -10z m610 0 c0 -6 -63
-10 -169 -10 -103 0 -172 4 -176 10 -4 7 55 10 169 10 111 0 176 -4 176 -10z
m250 0 c0 -6 -43 -10 -110 -10 -67 0 -110 4 -110 10 0 6 43 10 110 10 67 0
110 -4 110 -10z m120 0 c0 -5 -25 -10 -55 -10 -30 0 -55 5 -55 10 0 6 25 10
55 10 30 0 55 -4 55 -10z m694 -19 c66 -38 103 -94 130 -195 8 -34 26 -70 42
-87 25 -26 25 -27 5 -22 -31 8 -49 39 -62 106 -15 74 -61 143 -121 180 l-46
28 -185 -1 c-128 0 -188 3 -193 11 -5 8 46 10 192 7 185 -4 202 -6 238 -27z
m901 -101 c49 -86 58 -110 42 -110 -14 0 -97 150 -97 176 0 25 12 11 55 -66z
m-3696 -50 c-39 -73 -59 -97 -59 -69 0 14 48 101 63 114 7 6 12 15 13 20 1 6
5 21 10 35 8 25 9 25 12 2 2 -12 -15 -57 -39 -102z m-339 -71 c0 -5 -20 -6
-44 -3 l-45 7 -15 -49 c-17 -58 -21 -43 -5 18 l12 43 48 -3 c27 -2 49 -8 49
-13z m4465 -35 c9 -31 14 -61 12 -67 -2 -7 -12 14 -21 47 l-17 58 -52 -6 c-29
-3 -88 -10 -132 -15 -94 -12 -161 -14 -152 -5 3 4 82 14 174 24 92 10 169 18
170 19 1 1 9 -24 18 -55z m-4240 21 c146 -9 321 -28 335 -36 18 -10 -149 -2
-235 11 -33 5 -109 12 -170 15 -120 7 -154 13 -136 24 6 4 39 4 74 -1 34 -4
94 -10 132 -13z m3798 -16 c-13 -13 -144 -28 -228 -27 -45 0 -47 1 -20 9 28 8
165 24 230 28 22 1 26 -2 18 -10z m-363 -29 c0 -5 -15 -11 -32 -14 -59 -9
-268 -12 -268 -4 0 7 33 9 197 13 23 0 45 4 49 8 11 10 54 8 54 -3z m-4014
-31 c19 -11 41 -30 49 -42 18 -26 20 -77 3 -77 -22 1 -48 26 -48 47 0 24 -18
43 -42 43 -27 0 -22 -22 17 -80 40 -59 41 -67 19 -98 -27 -39 -60 -45 -110
-21 -66 32 -97 84 -78 133 6 14 9 14 34 0 18 -11 26 -23 23 -34 -7 -28 15 -60
41 -60 36 0 38 23 6 73 -41 65 -43 80 -19 110 25 33 59 35 105 6z m4842 -111
c10 -10 2 -23 -35 -60 -39 -40 -44 -49 -33 -63 18 -22 26 -19 74 25 38 35 45
38 56 25 10 -13 6 -21 -31 -53 -30 -27 -41 -43 -36 -55 14 -36 37 -31 86 17
45 45 48 46 64 28 16 -17 13 -22 -57 -91 l-74 -74 -85 89 -86 89 67 68 c37 37
69 67 72 67 3 0 11 -5 18 -12z m-4622 -69 c65 -53 73 -63 63 -80 -10 -19 -13
-18 -61 21 -58 46 -63 47 -77 21 -9 -16 -4 -24 34 -52 42 -32 54 -58 29 -66
-6 -2 -31 12 -54 32 l-43 36 -21 -21 -21 -21 53 -47 c43 -38 51 -49 41 -59 -7
-7 -17 -13 -21 -13 -5 0 -42 27 -83 61 l-74 61 76 94 c41 52 77 94 80 94 2 0
38 -27 79 -61z m4459 -139 c11 -17 -19 -50 -45 -50 -34 0 -50 -17 -50 -53 0
-36 49 -87 83 -87 34 0 61 33 53 65 -5 21 -2 27 19 37 31 14 45 0 45 -46 0
-21 -12 -41 -44 -72 -37 -38 -49 -44 -85 -44 -33 0 -49 7 -80 35 -75 68 -76
135 -3 195 37 30 94 41 107 20z m-4258 -21 c18 -11 40 -34 48 -49 17 -34 20
-80 4 -80 -22 0 -49 22 -49 40 0 26 -27 50 -55 50 -27 0 -85 -61 -85 -90 0
-32 30 -53 66 -47 27 5 36 1 48 -18 15 -23 15 -25 -3 -35 -68 -36 -171 33
-171 115 0 63 68 135 127 135 20 0 51 -9 70 -21z m1989 -40 c55 -14 103 -65
105 -112 6 -129 -29 -182 -131 -194 -123 -14 -197 85 -160 218 12 44 44 74 90
87 47 14 45 14 96 1z m395 -14 c39 -21 61 -61 66 -124 10 -127 -92 -202 -213
-156 -63 24 -84 61 -84 148 0 62 2 70 33 103 48 53 128 65 198 29z m641 4 c17
-9 43 -48 36 -53 -2 -2 -19 -6 -39 -9 -28 -4 -38 -1 -47 14 -15 23 -55 25 -72
3 -19 -22 2 -38 73 -58 68 -20 97 -45 97 -86 0 -50 -20 -78 -66 -96 -74 -28
-173 -4 -189 46 -8 27 -6 30 37 37 30 4 36 2 40 -15 7 -25 54 -40 77 -25 9 6
16 21 16 34 0 20 -10 27 -65 47 -80 29 -100 46 -100 87 0 42 27 74 70 85 38 9
104 3 132 -11z m-1612 -24 c0 -35 0 -35 -45 -35 l-45 0 0 -115 0 -115 -40 0
-40 0 0 115 0 115 -50 0 -50 0 0 35 0 35 135 0 135 0 0 -35z m302 6 c34 -43
16 -116 -33 -133 -11 -4 -9 -11 7 -29 24 -27 64 -90 64 -101 0 -5 -19 -8 -42
-8 -42 0 -44 2 -80 60 -26 42 -43 60 -58 60 -18 0 -20 -6 -20 -60 l0 -60 -40
0 -40 0 0 151 0 152 112 -5 c101 -4 113 -7 130 -27z m1024 -4 c26 -31 33 -92
13 -129 -14 -26 -68 -48 -120 -48 l-41 0 4 -45 3 -45 -42 0 -43 0 0 151 0 151
101 -4 c96 -3 102 -4 125 -31z m-2570 -68 l23 -21 -55 -66 c-59 -72 -64 -90
-34 -117 30 -27 59 -12 115 58 l50 64 27 -20 27 -20 -22 -31 c-12 -17 -42 -52
-68 -78 -38 -40 -51 -48 -82 -48 -30 0 -47 8 -82 41 -65 60 -63 94 11 188 30
39 58 71 61 71 4 0 17 -9 29 -21z m3934 -94 l84 -84 -24 -26 -24 -26 -88 88
-88 87 22 23 c12 13 24 23 27 23 4 0 44 -38 91 -85z m-112 -107 l51 -113 -29
-29 -29 -29 -120 55 -120 55 26 25 25 26 82 -44 c44 -24 84 -44 88 -44 5 0
-11 38 -34 85 -41 82 -42 84 -23 105 10 11 21 20 25 20 4 0 30 -51 58 -112z
m-3547 -23 c37 -30 71 -64 74 -76 11 -33 -24 -73 -66 -77 -33 -3 -34 -4 -35
-52 -3 -73 -13 -84 -48 -54 -28 24 -28 27 -18 76 17 85 -4 102 -51 43 -27 -34
-29 -34 -52 -19 -14 9 -25 20 -25 25 0 9 142 188 149 189 2 0 34 -25 72 -55z
m3312 -105 c33 -26 41 -53 26 -81 -10 -20 -9 -21 10 -16 12 3 42 -2 67 -10
l45 -15 -26 -28 c-26 -27 -27 -27 -72 -14 -89 27 -105 13 -51 -43 l32 -33 -24
-25 -24 -26 -88 88 -88 87 48 49 c43 45 98 87 113 87 4 0 18 -9 32 -20z
m-3134 -40 l23 -20 -77 -95 c-76 -93 -77 -94 -101 -78 -13 8 -24 19 -24 24 0
11 141 189 149 189 3 -1 17 -9 30 -20z m224 -217 l-15 -23 -30 25 c-29 24 -32
25 -49 9 -10 -9 -37 -41 -60 -70 -23 -30 -45 -54 -49 -54 -4 0 -18 8 -31 18
l-22 19 56 70 c31 39 57 75 57 81 0 6 -12 19 -27 30 -27 20 -27 21 -9 41 18
20 19 20 106 -52 85 -69 87 -72 73 -94z m2695 85 c10 -10 2 -23 -35 -60 -39
-40 -44 -49 -33 -63 18 -22 25 -19 70 21 33 30 43 34 55 24 13 -11 10 -17 -25
-47 -45 -38 -48 -48 -23 -75 16 -18 18 -17 65 29 45 45 49 46 65 30 17 -16 14
-21 -55 -90 l-72 -72 -87 87 -88 88 70 70 c38 38 72 70 75 70 3 0 11 -5 18
-12z m-2605 -179 c-3 -27 -3 -49 -1 -49 3 0 22 7 43 15 40 18 64 14 89 -14 16
-17 13 -19 -64 -41 -69 -20 -85 -29 -111 -61 -17 -22 -34 -39 -37 -39 -4 0
-18 9 -31 19 l-24 18 33 41 c31 39 43 88 49 206 1 6 14 -3 30 -18 27 -26 29
-33 24 -77z m2436 -25 c10 -9 -32 -55 -45 -50 -22 9 -54 -12 -54 -34 0 -27 26
-25 75 5 51 31 79 31 110 0 39 -38 33 -77 -20 -130 -45 -45 -81 -57 -114 -36
-12 8 -12 13 2 34 12 18 22 23 41 20 32 -7 56 12 56 43 0 31 -19 31 -87 -2
-45 -23 -58 -25 -79 -15 -63 28 -42 111 41 162 26 16 58 17 74 3z m-2217 -240
c67 -17 373 -117 423 -139 17 -7 53 -20 80 -30 59 -21 86 -32 180 -75 151 -70
171 -78 213 -91 55 -16 128 -1 237 51 44 21 118 52 165 70 47 18 94 36 105 41
133 51 340 118 445 144 30 7 70 17 88 23 17 6 32 7 32 3 0 -5 -30 -16 -67 -26
-97 -26 -541 -172 -588 -194 -140 -65 -245 -111 -274 -120 -83 -27 -182 -7
-318 63 -38 20 -72 36 -76 36 -3 0 -30 11 -59 24 -51 22 -110 45 -270 102 -40
14 -82 29 -93 34 -11 5 -54 18 -95 30 -83 24 -193 61 -199 66 -7 7 5 4 71 -12z"/>
<path d="M4610 6211 c0 -5 5 -13 10 -16 6 -3 10 -2 10 4 0 5 -4 13 -10 16 -5
3 -10 2 -10 -4z"/>
<path d="M4240 5996 c0 -2 8 -10 18 -17 15 -13 16 -12 3 4 -13 16 -21 21 -21
13z"/>
<path d="M5710 5556 c0 -2 8 -10 18 -17 15 -13 16 -12 3 4 -13 16 -21 21 -21
13z"/>
<path d="M3471 2204 c-31 -39 -29 -107 4 -139 32 -33 68 -32 94 1 46 58 14
164 -49 164 -19 0 -36 -9 -49 -26z"/>
<path d="M3826 2208 c-9 -13 -16 -43 -16 -69 0 -124 126 -136 137 -13 4 40 1
54 -17 77 -28 35 -81 38 -104 5z"/>
<path d="M3130 2200 c0 -26 20 -34 66 -26 26 5 34 12 32 24 -2 13 -16 18 -51
20 -42 3 -47 1 -47 -18z"/>
<path d="M4170 2184 c0 -34 1 -35 36 -32 71 6 68 68 -2 68 -32 0 -34 -2 -34
-36z"/>
<path d="M1954 1919 c-18 -20 -18 -21 6 -40 50 -38 94 -2 49 40 -28 26 -31 26
-55 0z"/>
<path d="M5242 1787 l-22 -23 23 -22 c22 -21 24 -21 39 -5 24 28 28 40 22 57
-9 23 -37 20 -62 -7z"/>
</g>
</svg>
